<?xml version="1.0" encoding="UTF-8" standalone="no"?>
<!-- Created with Inkscape (http://www.inkscape.org/) -->

<svg
   width="64.023018mm"
   height="22.374292mm"
   viewBox="0 0 64.023018 22.374292"
   version="1.1"
   id="svg964"
   sodipodi:docname="logo_pyse2018.svg"
   inkscape:version="1.3.2 (091e20ef0f, 2023-11-25, custom)"
   inkscape:export-filename="logo_pyse.png"
   inkscape:export-xdpi="96"
   inkscape:export-ydpi="96"
   xmlns:inkscape="http://www.inkscape.org/namespaces/inkscape"
   xmlns:sodipodi="http://sodipodi.sourceforge.net/DTD/sodipodi-0.dtd"
   xmlns="http://www.w3.org/2000/svg"
   xmlns:svg="http://www.w3.org/2000/svg"
   xmlns:rdf="http://www.w3.org/1999/02/22-rdf-syntax-ns#"
   xmlns:cc="http://creativecommons.org/ns#"
   xmlns:dc="http://purl.org/dc/elements/1.1/">
  <defs
     id="defs958" />
  <sodipodi:namedview
     id="base"
     pagecolor="#ffffff"
     bordercolor="#666666"
     borderopacity="1.0"
     inkscape:pageopacity="0.0"
     inkscape:pageshadow="2"
     inkscape:zoom="2.8"
     inkscape:cx="112.85714"
     inkscape:cy="91.785714"
     inkscape:document-units="mm"
     inkscape:current-layer="layer1"
     showgrid="false"
     fit-margin-top="0"
     fit-margin-left="0"
     fit-margin-right="0"
     fit-margin-bottom="0"
     inkscape:window-width="1920"
     inkscape:window-height="1029"
     inkscape:window-x="0"
     inkscape:window-y="0"
     inkscape:window-maximized="1"
     inkscape:showpageshadow="2"
     inkscape:pagecheckerboard="0"
     inkscape:deskcolor="#d1d1d1" />
  <metadata
     id="metadata961">
    <rdf:RDF>
      <cc:Work
         rdf:about="">
        <dc:format>image/svg+xml</dc:format>
        <dc:type
           rdf:resource="http://purl.org/dc/dcmitype/StillImage" />
      </cc:Work>
    </rdf:RDF>
  </metadata>
  <g
     inkscape:label="Layer 1"
     inkscape:groupmode="layer"
     id="layer1"
     transform="translate(-3.5182535,-4.3470347)">
    <path
       style="opacity:1;fill:#070707;fill-opacity:1;stroke:none;stroke-width:0.147431;stroke-miterlimit:4;stroke-dasharray:none;stroke-opacity:1"
       d=""
       id="path8963"
       inkscape:connector-curvature="0" />
    <path
       style="opacity:1;fill:#070707;fill-opacity:1;stroke:none;stroke-width:0.0521249;stroke-miterlimit:4;stroke-dasharray:none;stroke-opacity:1"
       d=""
       id="path9005"
       inkscape:connector-curvature="0" />
    <path
       style="opacity:1;fill:#070707;fill-opacity:1;stroke:none;stroke-width:0.0521249;stroke-miterlimit:4;stroke-dasharray:none;stroke-opacity:1"
       d=""
       id="path9007"
       inkscape:connector-curvature="0" />
    <path
       style="opacity:1;fill:#070707;fill-opacity:1;stroke:none;stroke-width:0.0521249;stroke-miterlimit:4;stroke-dasharray:none;stroke-opacity:1"
       d=""
       id="path9011"
       inkscape:connector-curvature="0" />
    <g
       style="display:inline"
       id="Layer_3"
       transform="matrix(0.03548782,0,0,0.03548782,36.907821,29.386734)" />
    <g
       style="display:inline"
       id="g4892"
       transform="matrix(0.02591634,0,0,0.02589094,39.201091,19.873114)"
       inkscape:export-xdpi="90"
       inkscape:export-ydpi="90">
      <path
         inkscape:export-ydpi="90"
         inkscape:export-xdpi="90"
         id="path3839"
         d="m -1048.0319,226.78519 c -31.9969,-31.5307 -38.2724,-39.47087 -38.2724,-48.42612 0,-9.34412 13.9567,-24.69363 109.34406,-120.258606 60.13932,-60.2508698 109.34429,-111.78761 109.34429,-114.52577 0,-2.73866 -49.20497,-54.348264 -109.34429,-114.688144 -94.74116,-95.05731 -109.34406,-111.12182 -109.34406,-120.28603 0,-8.63325 6.6968,-17.51339 36.4368,-48.3172 29.8094,-30.87542 38.293,-37.73991 46.6413,-37.73991 8.73992,0 32.15567,21.89588 163.14068,152.55288 84.11464,83.90411 154.41823,156.293094 156.22981,160.864494 2.50467,6.32026 1.60952,10.96904 -3.73509,19.39985 -3.86592,6.09841 -74.12695,78.15049 -156.13541,160.116076 -113.60307,113.54322 -151.12188,149.02735 -157.56999,149.0256 -6.0174,0 -19.5244,-10.90255 -46.7357,-37.71712 z"
         style="fill:#fed847;fill-opacity:1;stroke:none;stroke-width:10;stroke-linejoin:round;stroke-miterlimit:4;stroke-dasharray:none;stroke-opacity:1"
         inkscape:connector-curvature="0" />
      <path
         inkscape:export-ydpi="90"
         inkscape:export-xdpi="90"
         sodipodi:nodetypes="cscssssssscssssscssscscssscssscscssssscsssccc"
         inkscape:connector-curvature="0"
         id="path3837"
         d="m -581.91012,117.82325 c -13.60052,-2.27606 -25.63722,-4.70999 -34.75887,-6.96702 -9.12151,-2.25716 -15.32797,-4.33741 -17.26776,-5.90649 -2.55161,-2.06398 -4.13697,-18.612236 -4.45684,-34.644436 -0.31988,-16.0322 0.62572,-31.54847 3.13615,-31.54847 0.8492,0 3.95231,1.03887 8.26768,2.71274 4.31538,1.67387 9.84303,3.9826 15.54119,6.5222 5.8365,2.60132 13.39044,5.10724 21.01662,7.08997 7.62618,1.98272 15.3246,3.44226 21.45031,3.9508 9.95206,0.82629 15.58187,1.08457 19.76666,0.0926 4.1848,-0.99143 6.92459,-3.23231 11.09674,-7.40434 2.50692,-2.50717 4.78611,-5.34598 6.43844,-7.90023 1.65246,-2.55424 2.67807,-4.82367 2.67807,-6.19193 0,-5.1612 -3.68652,-10.91921 -10.25893,-16.58394 -6.5724,-5.66469 -16.03082,-11.2360298 -27.57438,-16.0240198 -24.84661,-10.30574 -42.438,-20.7633502 -54.25286,-32.8909502 -11.81485,-12.12759 -17.85318,-25.92505 -19.59352,-42.91024 -1.49384,-14.57568 -0.59343,-26.60687 3.15042,-37.387114 3.74374,-10.78011 10.33079,-20.30926 20.21049,-29.88099 9.29379,-9.00408 18.88079,-15.53229 30.40669,-20.25931 11.52578,-4.72714 24.99047,-7.65322 42.03963,-9.45304 9.51476,-1.00457 27.51554,-0.28895 44.74812,1.29565 17.23246,1.58473 33.69671,4.03845 40.13829,6.51019 1.9339,0.74216 3.19838,3.07255 3.97935,8.21585 0.78097,5.14329 1.07856,13.09936 1.07856,25.09287 0,8.62625 -0.29759,16.45512 -0.77709,22.11973 -0.47938,5.664484 -1.14079,9.164584 -1.86817,9.132914 -0.72752,-0.0326 -3.57134,-0.82905 -7.56696,-2.08651 -3.99575,-1.2576 -9.14331,-2.976164 -14.47828,-4.852854 -11.9388,-4.19969 -25.79146,-6.48564 -38.0122,-6.77409 -12.22075,-0.28845 -22.80956,1.42047 -28.22065,5.21052 -5.16896,3.62054 -7.74161,9.331224 -7.7237,15.292304 0.0175,5.9612 2.62648,12.17291 7.8201,16.79539 2.18242,1.94229 7.53955,5.30105 14.41217,9.14756 6.87263,3.84665 15.26075,8.18105 23.50564,12.07489 27.06546,12.78237 44.2203,23.94959 54.33775,37.28995 10.11745,13.34050023 13.19727,28.85426 12.11282,50.32985 -0.52094,10.31577 -1.29002,17.30207 -2.90442,23.10652 -1.61452,5.80433 -4.0745,10.42694 -7.97735,16.01505 -5.82524,8.34105 -12.95451,15.47533 -21.26877,21.31935 -8.31438,5.844016 -17.81386,10.397636 -28.37939,13.577356 -8.46574,2.54774 -24.83071,4.84859 -40.89584,6.20859 -16.06526,1.35988 -31.83054,1.77878 -39.09666,0.5625 h 3.8e-4 z"
         style="fill:#fed847;fill-opacity:1;stroke:none;stroke-width:10;stroke-linejoin:round;stroke-miterlimit:4;stroke-dasharray:none;stroke-opacity:1" />
      <path
         inkscape:export-ydpi="90"
         inkscape:export-xdpi="90"
         sodipodi:nodetypes="sscsscccccccssssssscccccccsssssss"
         inkscape:connector-curvature="0"
         id="path3835"
         d="m -313.69821,116.0312 c -19.38294,-3.37916 -36.86166,-11.69492 -50.97937,-23.707206 -14.11758,-12.01241 -24.8739,-27.72136 -30.81194,-45.8874 -1.36376,-4.17228 -2.54811,-16.15289 -3.50386,-34.9712 -0.95562,-18.8184398 -1.68263,-44.47457 -2.13171,-75.998 l -0.69796,-48.999154 -0.69797,-48.99927 19.96561,0.49979 19.96573,0.49965 19.96548,0.49991 19.9656,0.49991 0.88175,45.8541 0.88188,45.853974 c 0.92245,47.9674 1.62066,73.3986802 4.04508,88.20885 2.42454,14.81004 6.57541,18.99897 14.40328,24.48167 8.40665,5.88808 19.9313,7.11763 30.6517,4.60696 10.72039,-2.51068 20.63652,-8.76146 25.82627,-17.83403 1.55581,-2.71988 2.7965,-11.50524 3.80295,-27.6508698 1.00645,-16.1456302 1.77865,-39.6515202 2.39712,-71.8125802 l 0.88175,-45.853974 0.88188,-45.8541 19.96548,-0.49991 19.96548,-0.49991 19.96573,-0.49965 19.96573,-0.49979 -0.61371,48.99927 -0.61371,48.999154 c -0.58203,46.4648 -0.99555,71.2320402 -2.241,86.83507 -1.24532,15.60303 -3.32257,22.04186 -7.23206,31.85007 -7.88984,19.79396 -19.66777,34.69527 -35.97728,45.1147 -16.30951,10.419416 -37.15048,16.356956 -63.16618,18.223376 -7.27488,0.52194 -16.05499,0.61871 -24.3402,0.35417 -8.28533,-0.26453 -16.07577,-0.89026 -21.37155,-1.81358 z"
         style="fill:#fed847;fill-opacity:1;stroke:none;stroke-width:10;stroke-linejoin:round;stroke-miterlimit:4;stroke-dasharray:none;stroke-opacity:1" />
      <path
         inkscape:export-ydpi="90"
         inkscape:export-xdpi="90"
         sodipodi:nodetypes="cscssssssssssscssssscssscscsssssssssc"
         inkscape:connector-curvature="0"
         id="path3833"
         d="m 476.2597,117.63508 c -11.49963,-1.67913 -23.51104,-4.04533 -33.14511,-6.39425 -9.63407,-2.34905 -16.89105,-4.68082 -18.88166,-6.29109 -2.14298,-1.73346 -3.80733,-17.425506 -4.43757,-33.182776 -0.63023,-15.75715 -0.22623,-31.5794 1.76777,-33.57339 0.47825,-0.47825 3.35462,0.2589 7.60364,1.83174 4.24902,1.57296 9.87057,3.98148 15.83915,6.84608 14.88954,7.14631 30.11888,11.35865 43.31888,12.44259 13.2002,1.08407 24.3709,-0.96038 31.1435,-6.32765 2.6674,-2.11405 5.0924,-4.83118 6.8506,-7.50586 1.7581,-2.67469 2.8493,-5.30693 2.8493,-7.25109 0,-5.53504 -4.3342,-11.94757 -11.7041,-18.14564 -7.3699,-6.19794 -17.7755,-12.1814298 -29.9184,-16.8582398 -21.5552,-8.30199 -38.19961,-18.7691102 -49.93322,-31.4009902 -11.7336,-12.63189 -18.55627,-27.42866 -20.46801,-44.38994 -1.40295,-12.44396 -0.0951,-24.13425 3.92263,-35.073994 4.01829,-10.93973 10.74769,-21.1288 20.18921,-30.57019 8.94198,-8.94199 18.10857,-15.31245 29.58169,-19.95396 11.4732,-4.64138 25.2528,-7.55382 43.421,-9.57923 9.0982,-1.01434 26.8847,-0.29309 43.9936,1.29477 17.109,1.58774 33.5406,4.04195 39.9294,6.49353 1.934,0.74204 3.1985,3.07256 3.9795,8.21585 0.7811,5.14317 1.0786,13.09937 1.0786,25.09288 0,8.62612 -0.099,16.463 -0.2591,22.14013 -0.1597,5.677134 -0.3802,9.194634 -0.6227,9.182244 -0.2426,-0.015 -2.9784,-0.81427 -7.1909,-2.09252 -4.2124,-1.27813 -9.9015,-3.034504 -16.0505,-4.961894 -21.388,-6.70449 -40.0478,-8.54399 -53.3607,-6.01566 -13.3128,2.5282 -21.2786,9.424124 -21.2786,20.190584 0,6.06687 3.2408,11.79069 10.152,17.52804 6.9113,5.73735 17.493,11.48822 32.1748,17.60917 27.9467,11.65123 47.8837,26.14089 59.6502,43.2362602 11.7666,17.09536 15.363,36.7962998 10.629,58.8702098 -2.6361,12.2916 -7.6634,23.1745 -14.8537,32.35761 -7.1904,9.18311 -16.5441,16.66632 -27.8327,22.158786 -12.5823,6.12182 -29.66,10.7299 -47.3205,13.26337 -17.6605,2.53333 -35.9038,2.99193 -50.817,0.81452 z"
         style="fill:#fed847;fill-opacity:1;stroke:none;stroke-width:10;stroke-linejoin:round;stroke-miterlimit:4;stroke-dasharray:none;stroke-opacity:1" />
      <path
         inkscape:export-ydpi="90"
         inkscape:export-xdpi="90"
         id="path3831"
         d="m -0.14787832,-161.8407 c -8.45735998,0 -17.73899968,0.0939 -27.98564968,0.24451 l -36.15518,0.53308 -36.155182,0.53058 -0.4621,66.131204 -0.46222,66.12893 c -0.25452,36.3711502 -0.28369,69.95981 -0.12707,94.77713 0.15662,24.81719 0.49815,40.863166 0.9903,42.145916 0.714742,1.86254 5.113872,2.96614 17.170352,3.48458 12.05649,0.51756 31.77095,0.44995 63.11873,-0.0338 35.92019,-0.55487 55.9703,-1.02699 69.34197,-2.28145 13.37154,-1.25433 20.06426,-3.29077 29.2669,-6.9689 14.04747,-5.614156 27.292188,-14.294226 38.783788,-25.144196 11.4916,-10.8501 21.23096,-23.86846 28.26697,-38.16032 5.2119,-10.58731 8.12721,-17.3594 9.88596,-25.73125 1.75888,-8.3718398 2.36019,-18.3444398 2.94173,-35.33602 1.07292,-31.35004 -2.47663,-56.27365 -11.23595,-76.09553 -8.75933,-19.821884 -22.72856,-34.541034 -42.49072,-45.483774 -15.245848,-8.44195 -27.921918,-13.36916 -47.034068,-16.03333 -14.33392,-1.99812 -32.28638,-2.72338 -57.65856032,-2.70686 z m 1.25196002,59.71741 c 10.6353803,0.0401 23.5043903,2.274064 32.6340403,6.421174 29.30271,13.31007 42.36439,39.35368 39.53947,78.83419 -1.99624,27.89764 -13.4583,48.44978 -33.5804,60.20167 v 0 c -14.4988,8.46787 -50.18387,12.03282 -56.36754,5.6313 -6.13622,-6.35381 -6.29635,-140.94308 -0.17352,-147.06591 2.75819,-2.758324 9.6783897,-4.053344 17.9503197,-4.022424 z"
         style="fill:#fed847;fill-opacity:1;stroke:none;stroke-width:10;stroke-linejoin:round;stroke-miterlimit:4;stroke-dasharray:none;stroke-opacity:1"
         inkscape:connector-curvature="0" />
      <path
         inkscape:export-ydpi="90"
         inkscape:export-xdpi="90"
         sodipodi:nodetypes="csscccccccccccsssccccccccccccccccsscccccccssc"
         inkscape:connector-curvature="0"
         id="path3827"
         d="m 206.29541,108.46912 c -0.47299,-1.23293 -0.79888,-17.232956 -0.94285,-42.017466 -0.1441,-24.78452 -0.10642,-58.3535298 0.14823,-94.72467 l 0.46273,-66.12932 0.46284,-66.129434 h 42.32684 42.32683 42.32671 42.32683 v 14.10894 14.10894 14.10895 14.10882 l -18.51797,0.43618 -18.51796,0.43606 c -27.38296,0.64488 -40.74824,0.81252 -47.11019,3.836374 -6.36183,3.02386 -5.72033,8.90393 -5.08921,20.97443 l 0.5272,10.08553 0.52732,10.08553 20.79027,0.49752 20.7904,0.49741 20.79014,0.49753 20.79027,0.4974 -0.50867,15.37517 -0.50855,15.37505 -0.50879,15.37505 -0.5088,15.3750502 -20.2816,0.88176 -20.28147,0.88175 -20.2816,0.88188 -20.2816,0.88175 -0.52732,10.0855298 -0.5272,10.08553 c -0.63525,12.14737 -1.36451,18.03771 5.39544,21.04792 6.75995,3.01033 21.00923,3.14054 50.3311,3.76764 l 20.2816,0.43381 20.28172,0.43367 v 14.10895 14.10894 14.10895 14.108806 l -43.69322,0.47187 -43.69309,0.47174 c -34.0614,0.36782 -56.0026,0.35668 -69.59611,-0.18342 -13.59364,-0.54009 -18.8396,-1.60889 -19.51027,-3.35612 z"
         style="fill:#fed847;fill-opacity:1;stroke:none;stroke-width:10;stroke-linejoin:round;stroke-miterlimit:4;stroke-dasharray:none;stroke-opacity:1" />
      <path
         inkscape:export-ydpi="90"
         inkscape:export-xdpi="90"
         sodipodi:nodetypes="sscssccccccccccccccccsccccccccccccs"
         inkscape:connector-curvature="0"
         id="path3825"
         d="m 716.1116,7.3890142 c 0,-46.4466502 -0.1659,-72.8701102 -0.9463,-87.9178902 -0.7804,-15.04767 -2.1752,-18.71941 -4.633,-19.662644 -1.5343,-0.58879 -6.6665,-1.124 -13.6988,-1.51211 -7.0325,-0.38798 -15.9653,-0.62886 -25.1008,-0.62886 h -16.6102 -16.6101 v -15.01411 -15.01411 -15.01423 -15.01424 l 59.5219,0.46435 59.5221,0.46435 59.5221,0.46435 59.5221,0.46436 v 14.10894 14.10894 14.10882 14.10895 l -15.8725,0.44056 -15.8725,0.44069 c -8.73,0.24225 -17.5591,0.66855 -24.7513,1.16032 -7.1923,0.49164 -12.7476,1.04864 -14.9301,1.55242 l -3.9682,0.915564 -3.9681,0.91568 V -45.796056 7.0789042 59.953734 112.82869 H 776.9563 756.6748 736.3932 716.1116 V 60.108854 Z"
         style="fill:#fed847;fill-opacity:1;stroke:none;stroke-width:10;stroke-linejoin:round;stroke-miterlimit:4;stroke-dasharray:none;stroke-opacity:1" />
      <path
         inkscape:export-ydpi="90"
         inkscape:export-xdpi="90"
         sodipodi:nodetypes="ccccccccccccssssscccccccsscsscccccccccccc"
         inkscape:connector-curvature="0"
         id="path3823"
         d="m 917.1638,-24.733356 v -68.78096 -68.781094 h 42.3267 42.3269 42.3268 42.3268 v 14.9907 14.99082 14.9907 14.9907 h -21.1013 -21.1014 c -23.5308,0 -35.9072,0.31487 -42.4008,3.661984 -6.4936,3.34711 -7.1045,9.72634 -7.1045,21.85493 0,9.24947 1.0551,14.3338 7.4198,17.10564 6.3647,2.77196 18.0389,3.23142 39.2768,3.23142 h 19.1159 19.1159 l -0.5098,15.43177 -0.5098,15.43164 -0.5094,15.43163 -0.5094,15.4316402 -19.335,0.50442 -19.3349,0.50441 c -20.9962,0.54773 -32.0155,1.07255 -37.7971,3.8566598 -5.7814,2.7841 -6.3249,7.82737 -6.3692,17.41161 -0.056,12.15689 0.4523,18.49205 7.343,21.78795 6.8908,3.29591 20.1637,3.55269 45.6359,3.55269 h 22.8649 22.8649 v 14.99069 14.9907 14.9907 14.990696 h -44.0905 -44.0904 -44.0904 -44.0904 V 44.047734 Z"
         style="fill:#fed847;fill-opacity:1;stroke:none;stroke-width:10;stroke-linejoin:round;stroke-miterlimit:4;stroke-dasharray:none;stroke-opacity:1" />
      <path
         inkscape:export-ydpi="90"
         inkscape:export-xdpi="90"
         id="path3821"
         d="m -1219.0524,-106.37581 c -86.1635,-86.08278 -156.515,-159.14081 -157.3247,-163.37693 -0.8057,-4.21422 -0.5495,-10.21936 0.5692,-13.34425 1.1188,-3.12476 71.5886,-75.63255 156.5997,-161.12841 139.4573,-140.2525 155.6677,-155.44689 165.8402,-155.44689 9.6495,0 16.8157,5.55832 49.7199,38.56507 32.49933,32.60074 38.4455,40.27162 38.4455,49.60058 0,9.77179 -12.63827,23.69732 -110.3403,121.5808 -60.6873,60.79985 -109.7601,112.21628 -109.0505,114.2586 0.7096,2.04219 48.2382,51.00478 105.619,108.80556 57.3809,57.80092 107.11401,109.379594 110.51846,114.619674 3.4042,5.23994 5.25134,12.48327 4.10492,16.09592 -1.14679,3.61278 -20.08178,24.32493 -42.07768,46.0267502 -28.3586,27.9792598 -42.4323,39.4579698 -48.3784,39.4579698 -6.3487,0 -46.24,-37.81903 -164.2453,-155.714444 z"
         style="fill:#306a98;fill-opacity:1;stroke:none;stroke-width:10;stroke-linejoin:round;stroke-miterlimit:4;stroke-dasharray:none;stroke-opacity:1"
         inkscape:connector-curvature="0" />
      <path
         inkscape:export-ydpi="90"
         inkscape:export-xdpi="90"
         id="path3811"
         d="m 564.4414,-573.07732 c -51.6105,0 -72.9202,6.43281 -103.5018,31.24037 -59.44273,48.21955 -78.10918,140.49388 -42.94806,212.31697 20.06489,40.98649 62.55836,73.35186 108.03036,82.28196 73.9399,14.52096 150.6828,-21.68918 180.6855,-85.25536 12.5465,-26.58283 17.7314,-57.73769 15.5712,-93.5815 -4.0057,-66.48212 -37.7789,-116.29791 -94.3468,-139.16055 -16.4535,-6.65015 -26.0958,-7.84189 -63.4904,-7.84189 z m -3.3891,80.81979 c 6.6652,-0.0376 13.6601,1.35387 20.8308,4.32564 13.5018,5.59563 17.5534,9.77655 26.5798,27.42578 9.4152,18.41042 10.6436,24.32705 10.6098,51.05398 -0.046,34.92913 -8.9336,58.34714 -27.0393,71.2393 -14.5822,10.38362 -36.7943,12.15214 -52.213,4.15688 -22.4502,-11.64121 -35.2876,-39.03593 -35.3239,-75.38642 -0.049,-49.31125 24.4415,-82.63625 56.5558,-82.81516 z"
         clip-path="none"
         style="fill:#306a98;fill-opacity:1;stroke:none;stroke-width:10;stroke-linejoin:round;stroke-miterlimit:4;stroke-dasharray:none;stroke-opacity:1"
         inkscape:connector-curvature="0" />
      <path
         inkscape:export-ydpi="90"
         inkscape:export-xdpi="90"
         id="path3803"
         d="m -767.16301,-571.61991 c -33.46302,0.16601 -61.67293,1.59612 -64.47579,4.399 -3.15982,3.16019 -4.2327,42.41722 -4.2327,154.9078 0,82.87213 0.98007,153.23469 2.17871,156.35783 1.87769,4.8924 8.59097,5.54267 48.50108,4.69734 l 46.32007,-0.98303 1.76301,-49.38137 1.76301,-49.38149 35.27242,-2.24714 c 43.61961,-2.78123 69.28325,-11.94594 92.89431,-33.17452 29.73438,-26.73357 41.37234,-65.60061 32.47517,-108.45814 -7.96922,-38.3868 -34.02147,-61.57795 -80.16201,-71.35437 -17.56385,-3.72157 -69.27336,-5.59537 -112.29728,-5.38191 z m 42.81597,70.77971 c 3.45578,0.0263 7.84677,0.63311 13.42437,1.46955 22.60686,3.39017 33.77834,15.80597 33.77834,37.5441 0,12.6752 -2.07663,19.37342 -8.22086,26.51609 -6.58405,7.65448 -12.02719,9.86756 -27.33764,11.1184 -10.51369,0.85896 -20.30526,0.35067 -21.76016,-1.12965 -1.4549,-1.48056 -2.64564,-18.35045 -2.64564,-37.48788 0,-30.80018 0.41966,-38.12338 12.76159,-38.03061 z"
         style="fill:#306a98;fill-opacity:1;stroke:none;stroke-width:10;stroke-linejoin:round;stroke-miterlimit:4;stroke-dasharray:none;stroke-opacity:1"
         inkscape:connector-curvature="0" />
      <path
         inkscape:export-ydpi="90"
         inkscape:export-xdpi="90"
         id="path3799"
         d="m -466.58973,-252.73024 c -1.34686,-1.34711 -2.44896,-26.27147 -2.44896,-55.38776 v -52.93868 l -47.73504,-101.81864 c -26.25457,-55.99997 -46.7952,-103.33964 -45.64603,-105.19892 1.17609,-1.90298 24.31729,-3.38042 52.94482,-3.38042 48.92415,0 51.04272,0.30135 55.79377,7.93629 2.716,4.36496 12.48503,30.55455 21.70883,58.19929 9.22368,27.64474 17.84529,50.26299 19.15885,50.26299 1.3138,0 11.02537,-25.79284 21.581,-57.31753 l 19.19265,-57.31753 47.33466,-0.98842 c 27.43454,-0.57289 48.7793,0.45634 50.77067,2.44771 2.22949,2.22911 -13.77004,38.48907 -45.57128,103.27779 l -49.00678,99.84242 -1.76364,56.43578 -1.76363,56.43565 -46.05041,0.97953 c -25.32749,0.53872 -47.15238,-0.12144 -48.49948,-1.46955 z"
         style="fill:#306a98;fill-opacity:1;stroke:none;stroke-width:10;stroke-linejoin:round;stroke-miterlimit:4;stroke-dasharray:none;stroke-opacity:1"
         inkscape:connector-curvature="0" />
      <path
         inkscape:export-ydpi="90"
         inkscape:export-xdpi="90"
         id="path3797"
         d="m -172.75112,-366.58683 c 0,-63.86052 -0.96338,-118.62092 -2.14097,-121.68959 -1.77603,-4.62774 -8.87426,-5.57923 -41.62135,-5.57923 -26.00405,0 -40.92514,-1.44476 -43.71313,-4.23262 -6.19456,-6.19469 -5.70229,-64.22872 0.58955,-69.45001 3.45327,-2.86611 42.74861,-3.73985 138.4438,-3.07756 l 133.621762,0.92469 v 37.03593 37.03593 l -43.20859,0.99043 -43.20858,0.9903 v 116.00157 c 0,63.80092 -0.96338,118.5125 -2.14085,121.58117 -1.80482,4.70336 -9.55833,5.57936 -49.381242,5.57936 h -47.2404 z"
         style="fill:#306a98;fill-opacity:1;stroke:none;stroke-width:10;stroke-linejoin:round;stroke-miterlimit:4;stroke-dasharray:none;stroke-opacity:1"
         inkscape:connector-curvature="0" />
      <path
         inkscape:export-ydpi="90"
         inkscape:export-xdpi="90"
         id="path3795"
         d="m 53.837692,-410.08387 0.91768,-159.60728 h 45.853978 45.85397 l 0.97728,54.42551 c 0.60106,33.48513 2.49365,56.25286 4.91869,59.17494 3.03738,3.65984 15.35527,4.52545 53.69499,3.77377 l 49.75345,-0.97552 0.97715,-54.42538 c 0.60182,-33.54047 2.49215,-56.25099 4.92471,-59.1827 3.01521,-3.63281 14.45661,-4.52483 48.40446,-3.77391 l 44.45616,0.98329 v 158.72552 158.72541 l -46.64295,0.98353 c -55.41043,1.16846 -50.01774,8.13661 -51.26319,-66.23735 l -0.85634,-51.14475 -48.89711,-0.98392 c -33.04819,-0.66516 -50.48259,0.33227 -53.79026,3.07732 -3.79707,3.15143 -4.89328,16.60785 -4.89328,60.0652 v 56.00373 H 100.57354 52.919752 Z"
         style="fill:#306a98;fill-opacity:1;stroke:none;stroke-width:10;stroke-linejoin:round;stroke-miterlimit:4;stroke-dasharray:none;stroke-opacity:1"
         inkscape:connector-curvature="0" />
      <path
         inkscape:export-ydpi="90"
         inkscape:export-xdpi="90"
         id="path3556-3"
         d="m 769.8659,-410.08387 0.9177,-159.60728 42.8511,-0.98754 c 34.7546,-0.80088 43.8735,0.0338 48.2619,4.42367 2.9762,2.97615 31.1539,40.40144 62.618,83.16734 31.4637,42.76614 58.5224,76.44081 60.1308,74.83267 1.6081,-1.60839 3.352,-38.58936 3.8756,-82.18004 l 0.9511,-79.2561 h 42.3268 42.3267 l 0.9179,159.60728 0.9177,159.60741 h -41.748 c -38.8409,0 -42.2416,-0.55262 -48.8399,-7.93629 -3.9012,-4.36508 -32.8861,-43.25266 -64.4113,-86.4173 -31.5252,-43.16452 -58.768,-78.48089 -60.5398,-78.48089 -1.8559,0 -3.2213,36.62842 -3.2213,86.41718 v 86.4173 h -44.1264 -44.1264 z"
         style="fill:#306a98;fill-opacity:1;stroke:none;stroke-width:10;stroke-linejoin:round;stroke-miterlimit:4;stroke-dasharray:none;stroke-opacity:1"
         inkscape:connector-curvature="0" />
    </g>
  </g>
</svg>
