<?xml version="1.0" encoding="UTF-8" standalone="no"?>
<!-- Created with Inkscape (http://www.inkscape.org/) -->

<svg
   width="17.99441mm"
   height="22.374292mm"
   viewBox="0 0 17.99441 22.374292"
   version="1.1"
   id="svg964"
   sodipodi:docname="pyse_tags.svg"
   inkscape:version="1.3.2 (091e20ef0f, 2023-11-25, custom)"
   inkscape:export-filename="pyse_tags.png"
   inkscape:export-xdpi="96"
   inkscape:export-ydpi="96"
   xmlns:inkscape="http://www.inkscape.org/namespaces/inkscape"
   xmlns:sodipodi="http://sodipodi.sourceforge.net/DTD/sodipodi-0.dtd"
   xmlns="http://www.w3.org/2000/svg"
   xmlns:svg="http://www.w3.org/2000/svg"
   xmlns:rdf="http://www.w3.org/1999/02/22-rdf-syntax-ns#"
   xmlns:cc="http://creativecommons.org/ns#"
   xmlns:dc="http://purl.org/dc/elements/1.1/">
  <defs
     id="defs958" />
  <sodipodi:namedview
     id="base"
     pagecolor="#ffffff"
     bordercolor="#666666"
     borderopacity="1.0"
     inkscape:pageopacity="0.0"
     inkscape:pageshadow="2"
     inkscape:zoom="2.8"
     inkscape:cx="112.85714"
     inkscape:cy="91.785714"
     inkscape:document-units="mm"
     inkscape:current-layer="layer1"
     showgrid="false"
     fit-margin-top="0"
     fit-margin-left="0"
     fit-margin-right="0"
     fit-margin-bottom="0"
     inkscape:window-width="1920"
     inkscape:window-height="1029"
     inkscape:window-x="0"
     inkscape:window-y="0"
     inkscape:window-maximized="1"
     inkscape:showpageshadow="2"
     inkscape:pagecheckerboard="0"
     inkscape:deskcolor="#d1d1d1" />
  <metadata
     id="metadata961">
    <rdf:RDF>
      <cc:Work
         rdf:about="">
        <dc:format>image/svg+xml</dc:format>
        <dc:type
           rdf:resource="http://purl.org/dc/dcmitype/StillImage" />
      </cc:Work>
    </rdf:RDF>
  </metadata>
  <g
     inkscape:label="Layer 1"
     inkscape:groupmode="layer"
     id="layer1"
     transform="translate(-3.5182534,-4.3470347)">
    <path
       style="opacity:1;fill:#070707;fill-opacity:1;stroke:none;stroke-width:0.147431;stroke-miterlimit:4;stroke-dasharray:none;stroke-opacity:1"
       d=""
       id="path8963"
       inkscape:connector-curvature="0" />
    <path
       style="opacity:1;fill:#070707;fill-opacity:1;stroke:none;stroke-width:0.0521249;stroke-miterlimit:4;stroke-dasharray:none;stroke-opacity:1"
       d=""
       id="path9005"
       inkscape:connector-curvature="0" />
    <path
       style="opacity:1;fill:#070707;fill-opacity:1;stroke:none;stroke-width:0.0521249;stroke-miterlimit:4;stroke-dasharray:none;stroke-opacity:1"
       d=""
       id="path9007"
       inkscape:connector-curvature="0" />
    <path
       style="opacity:1;fill:#070707;fill-opacity:1;stroke:none;stroke-width:0.0521249;stroke-miterlimit:4;stroke-dasharray:none;stroke-opacity:1"
       d=""
       id="path9011"
       inkscape:connector-curvature="0" />
    <g
       style="display:inline"
       id="Layer_3"
       transform="matrix(0.03548782,0,0,0.03548782,36.907821,29.386734)" />
    <path
       inkscape:export-ydpi="90"
       inkscape:export-xdpi="90"
       id="path3839"
       d="m 12.03994,25.744796 c -0.829243,-0.81636 -0.991881,-1.021938 -0.991881,-1.253798 0,-0.241928 0.361707,-0.639341 2.833798,-3.113608 1.558591,-1.559952 2.833804,-2.894287 2.833804,-2.96518 0,-0.07091 -1.275213,-1.407128 -2.833804,-2.969384 -2.455344,-2.461123 -2.833798,-2.877048 -2.833798,-3.114318 0,-0.223523 0.173557,-0.453439 0.944309,-1.250978 0.77255,-0.799394 0.992414,-0.977122 1.208772,-0.977122 0.226506,0 0.833357,0.566905 4.228009,3.949738 2.179944,2.172356 4.001955,4.046575 4.048905,4.164933 0.06491,0.163637 0.04171,0.283998 -0.0968,0.50228 -0.10019,0.157893 -1.921099,2.02339 -4.046458,4.145556 -2.944176,2.93974 -3.916526,3.858458 -4.083638,3.858412 -0.155949,0 -0.506001,-0.282277 -1.211218,-0.976531 z"
       style="fill:#fed847;fill-opacity:1;stroke:none;stroke-width:0.259036;stroke-linejoin:round;stroke-miterlimit:4;stroke-dasharray:none;stroke-opacity:1"
       inkscape:connector-curvature="0" />
    <path
       inkscape:export-ydpi="90"
       inkscape:export-xdpi="90"
       id="path3821"
       d="M 7.6077145,17.118944 C 5.374672,14.89018 3.5514186,12.998639 3.5304341,12.888962 c -0.020881,-0.10911 -0.014241,-0.264589 0.014752,-0.345495 0.028995,-0.0809 1.8553145,-1.958198 4.0584911,-4.1717662 3.6142228,-3.631269 4.0343368,-4.0246661 4.2979708,-4.0246661 0.250079,0 0.435801,0.1439101 1.288558,0.9984859 0.842263,0.8440638 0.996366,1.0426701 0.996366,1.2842057 0,0.2530008 -0.327537,0.6135459 -2.859616,3.1478412 -1.5727928,1.5741655 -2.8445802,2.9053845 -2.8261899,2.9582625 0.01839,0.05287 1.2501576,1.320562 2.7372579,2.817078 1.487103,1.49652 2.776003,2.831941 2.864234,2.967611 0.08822,0.135667 0.136095,0.323204 0.106384,0.416739 -0.02972,0.09354 -0.520446,0.629795 -1.090499,1.191676 -0.734951,0.724409 -1.09969,1.021604 -1.253791,1.021604 -0.164536,0 -1.198372,-0.979171 -4.2566375,-4.031594 z"
       style="fill:#306a98;fill-opacity:1;stroke:none;stroke-width:0.259036;stroke-linejoin:round;stroke-miterlimit:4;stroke-dasharray:none;stroke-opacity:1"
       inkscape:connector-curvature="0" />
  </g>
</svg>
