<?xml version="1.0" encoding="UTF-8" standalone="no"?>
<!-- Created with Inkscape (http://www.inkscape.org/) -->

<svg
   width="187.98071mm"
   height="167.95688mm"
   viewBox="0 0 187.98071 167.95688"
   version="1.1"
   id="svg1"
   xml:space="preserve"
   inkscape:version="1.3.2 (091e20ef0f, 2023-11-25, custom)"
   sodipodi:docname="logo_2024.svg"
   xmlns:inkscape="http://www.inkscape.org/namespaces/inkscape"
   xmlns:sodipodi="http://sodipodi.sourceforge.net/DTD/sodipodi-0.dtd"
   xmlns="http://www.w3.org/2000/svg"
   xmlns:svg="http://www.w3.org/2000/svg"><sodipodi:namedview
     id="namedview1"
     pagecolor="#000000"
     bordercolor="#000000"
     borderopacity="0.25"
     inkscape:showpageshadow="2"
     inkscape:pageopacity="0.0"
     inkscape:pagecheckerboard="true"
     inkscape:deskcolor="#000000"
     inkscape:document-units="mm"
     inkscape:zoom="0.8075415"
     inkscape:cx="403.07526"
     inkscape:cy="191.32144"
     inkscape:window-width="1920"
     inkscape:window-height="1029"
     inkscape:window-x="0"
     inkscape:window-y="0"
     inkscape:window-maximized="1"
     inkscape:current-layer="layer1" /><defs
     id="defs1" /><g
     inkscape:label="Layer 1"
     inkscape:groupmode="layer"
     id="layer1"
     transform="translate(-11.622713,-312.30721)"><path
       style="fill:#fdfdfd"
       d="m 50.48225,479.67785 c -2.364256,-0.99711 -4.158833,-2.53153 -5.095755,-4.35703 -0.204382,-0.39822 -4.744293,-12.33263 -10.088689,-26.52091 -5.344397,-14.18828 -12.858933,-34.12724 -16.698969,-44.30879 -6.556653,-17.38445 -6.98153,-18.6172 -6.976073,-20.24063 0.0076,-2.26481 0.582859,-3.47022 2.542436,-5.32761 2.685387,-2.54535 6.59143,-4.04162 13.723629,-5.25704 10.036461,-1.71035 23.994833,-2.08531 26.841309,-0.72103 1.319291,0.63232 0.98038,1.0383 -3.703773,4.43675 -8.669723,6.29005 -14.144614,10.33455 -14.616244,10.79754 -0.455515,0.44716 -0.213465,1.16526 6.036781,17.90947 3.581227,9.594 8.041512,21.55129 9.911743,26.57176 1.870231,5.02047 5.627856,15.08125 8.350277,22.35729 4.257824,11.37962 4.967329,13.4881 5.07483,15.08125 0.182924,2.71091 -0.553362,4.53623 -2.675694,6.6333 -1.388014,1.37149 -1.972933,1.73484 -4.002605,2.48641 -3.267023,1.20975 -6.442707,1.37889 -8.623203,0.45927 z m 103.08366,0.0681 c -0.87312,-0.10833 -15.93453,-0.21811 -33.46979,-0.24394 -17.53526,-0.0258 -33.608696,-0.1369 -35.718748,-0.24681 -3.474073,-0.18096 -3.982333,-0.27182 -5.380779,-0.96196 -1.941,-0.95789 -3.932197,-3.09321 -4.619755,-4.95414 -1.601433,-4.33439 -0.651765,-8.97796 2.396627,-11.71872 2.43255,-2.18708 3.084375,-2.31471 12.895573,-2.52502 4.729428,-0.10137 15.395792,-0.19714 23.703022,-0.21282 8.30724,-0.0157 19.76698,-0.10737 25.46609,-0.20377 l 10.36202,-0.17528 1.49905,-3.85962 c 1.37142,-3.53103 1.60231,-3.94435 2.71204,-4.85498 5.4929,-4.50743 18.14332,-6.92726 23.07132,-4.41318 1.88198,0.96011 1.94559,1.63045 0.49198,5.18486 -1.41743,3.46594 -6.87213,18.3088 -6.87239,18.70057 -4.4e-4,0.63683 -1.66667,3.80041 -2.72378,5.17146 -1.37408,1.78215 -4.22106,3.8034 -6.35848,4.51427 -1.34162,0.4462 -5.2335,1.14309 -5.7342,1.02678 -0.0728,-0.0169 -0.84667,-0.11937 -1.7198,-0.2277 z"
       id="path30" /><path
       style="fill:#7ed1b9"
       d="m 17.040912,376.62873 c 0.145521,-0.14886 6.039115,-4.54465 13.096875,-9.76842 7.057761,-5.22377 14.366997,-10.63985 16.242747,-12.03573 3.018239,-2.24608 3.672445,-2.61491 5.688542,-3.20705 7.27892,-2.13788 16.891836,-3.22974 26.757471,-3.03919 4.961581,0.0958 6.136442,0.19418 7.086087,0.59314 0.882154,0.37062 1.120368,0.60061 1.058333,1.02182 -0.05459,0.37064 -4.162318,3.56481 -12.912346,10.04065 -18.668387,13.81636 -18.284524,13.54207 -18.488914,13.21136 -0.100516,-0.16264 -0.654833,-0.50214 -1.231817,-0.75444 -1.575291,-0.68884 -11.640145,-0.8203 -17.850103,-0.23314 -8.193654,0.77472 -15.192676,2.16703 -17.859375,3.55275 -1.668368,0.86695 -1.930362,0.96898 -1.5875,0.61825 z"
       id="path28"
       sodipodi:nodetypes="sssssssssssss" /><path
       style="fill:#435ae5"
       d="m 153.16592,448.46918 c 0.40939,-1.05502 5.69821,-14.58148 11.75295,-30.05879 6.05473,-15.47731 11.07591,-28.40872 11.15817,-28.73647 0.15634,-0.6229 -2.12483,-2.39121 -51.21842,-39.70331 -7.05776,-5.36404 -14.0506,-10.67934 -15.53965,-11.81179 l -2.70736,-2.05899 -9.284847,6.87425 c -10.091222,7.47127 -10.303558,7.61639 -10.303558,7.04199 0,-0.2076 -0.506016,-0.59017 -1.124479,-0.85015 -0.932891,-0.39216 -2.137846,-0.49227 -7.072179,-0.58758 -9.818424,-0.18964 -20.289369,1.01053 -26.968815,3.09113 -1.097979,0.34202 -1.564287,0.40673 -1.322917,0.18358 0.20502,-0.18953 5.671046,-4.25499 12.146723,-9.03434 24.348857,-17.9706 34.57938,-25.64599 36.231376,-27.18237 0.936788,-0.87122 2.365536,-1.89466 3.174996,-2.2743 1.29356,-0.60668 1.79211,-1.05483 4.23387,-1.05483 2.44316,0 2.96959,0.44757 4.24934,1.05303 0.80037,0.37865 8.06318,5.72583 16.13959,11.88261 8.0764,6.15679 16.6489,12.69118 19.05,14.52087 2.40109,1.82969 7.46125,5.69233 11.24479,8.58364 3.78354,2.89131 13.78479,10.51321 22.225,16.93755 8.44021,6.42435 16.033,12.35827 16.87288,13.18651 1.05415,1.03954 1.83254,2.14567 2.51354,3.57187 0.89953,1.88386 0.9865,2.26426 0.9865,4.31495 v 2.24896 l -6.25064,16.93334 c -3.43784,9.31333 -8.25099,22.38647 -10.69589,29.05141 l -4.44525,12.11808 -0.62716,-0.67636 c -1.2937,-1.39521 -2.18723,-1.59371 -7.08523,-1.57406 -4.1509,0.0167 -4.7373,0.0812 -7.6007,0.83655 -3.61979,0.95489 -7.61105,2.76086 -9.12561,4.12917 -0.5857,0.52915 -1.12936,0.96208 -1.20813,0.96208 -0.0788,0 0.19172,-0.8632 0.60111,-1.91823 z"
       id="path27"
       sodipodi:nodetypes="ssssscsssssssssssssssssscsscssssss" /></g></svg>
