<?xml version="1.0" encoding="UTF-8" standalone="no"?>
<svg xmlns:dc="http://purl.org/dc/elements/1.1/" xmlns:cc="http://creativecommons.org/ns#" xmlns:rdf="http://www.w3.org/1999/02/22-rdf-syntax-ns#" xmlns:svg="http://www.w3.org/2000/svg" xmlns="http://www.w3.org/2000/svg" xmlns:xlink="http://www.w3.org/1999/xlink" xmlns:sodipodi="http://sodipodi.sourceforge.net/DTD/sodipodi-0.dtd" xmlns:inkscape="http://www.inkscape.org/namespaces/inkscape" version="1.1" width="651.34375" height="270.67233" id="svg2" inkscape:version="0.91 r13725" sodipodi:docname="Crypto_key.svg">
  <metadata id="metadata27">
    <rdf:RDF>
      <cc:Work rdf:about="">
        <dc:format>image/svg+xml</dc:format>
        <dc:type rdf:resource="http://purl.org/dc/dcmitype/StillImage"/>
        <dc:title/>
      </cc:Work>
    </rdf:RDF>
  </metadata>
  <sodipodi:namedview pagecolor="#ffffff" bordercolor="#666666" borderopacity="1" objecttolerance="10" gridtolerance="10" guidetolerance="10" inkscape:pageopacity="0" inkscape:pageshadow="2" inkscape:window-width="686" inkscape:window-height="480" id="namedview25" showgrid="false" fit-margin-top="0" fit-margin-left="0" fit-margin-right="0" fit-margin-bottom="0" inkscape:zoom="0.21691749" inkscape:cx="183.83511" inkscape:cy="448.33622" inkscape:window-x="1331" inkscape:window-y="177" inkscape:window-maximized="0" inkscape:current-layer="svg2"/>
  <defs id="defs4">
    <linearGradient id="linearGradient5158">
      <stop style="stop-color:#e6e699" offset="0" id="stop7"/>
      <stop style="stop-color:#aeae2a" offset="1" id="stop9"/>
    </linearGradient>
    <filter id="filter7120" style="color-interpolation-filters:sRGB">
      <feGaussianBlur stdDeviation="3.92425" id="feGaussianBlur12"/>
    </filter>
    <linearGradient x1="335" y1="216.04376" x2="335" y2="236.74471" id="linearGradient7130" xlink:href="#linearGradient5158" gradientUnits="userSpaceOnUse"/>
    <linearGradient x1="335" y1="216.04376" x2="335" y2="236.74471" id="linearGradient2832" xlink:href="#linearGradient5158" gradientUnits="userSpaceOnUse"/>
    <linearGradient x1="260" y1="146" x2="260" y2="166" id="linearGradient2836" xlink:href="#linearGradient5158" gradientUnits="userSpaceOnUse"/>
  </defs>
  <path d="M 116.08885,2 C 52.214562,2 2,48.899481 2,138.79663 c 0,89.89715 49.399613,129.8757 113.2739,129.87569 50.82546,0 96.47552,-13.21043 112.00735,-77.37569 l 94.65625,0 32.375,-39.21875 21.34375,0 14.375,14.375 34.46875,0 5.71875,-9.875 33.21875,0 15.3125,26.53125 28.09375,0 18.21875,-18.21875 24.1875,0 21.03125,21.03125 26.40625,0 52.65625,-52.65625 0,-15.53125 -12.24469,-2.29187 -32.10751,-32.539689 -378.5228,0.14406 C 210.28105,20.582621 166.04934,2.000003 116.08885,2 Z M 76.697296,77.724331 c 20.50286,10e-6 33.865204,29.163179 33.865204,61.072299 0,31.90912 -16.62214,57.8125 -37.125,57.8125 -20.50285,0 -37.15625,-25.90338 -37.15625,-57.8125 0,-31.90913 19.913186,-61.072299 40.416046,-61.072299 z" style="fill:#ffd839;fill-opacity:1;stroke:#000000;stroke-width:4" id="path19" inkscape:connector-curvature="0" sodipodi:nodetypes="ssscccccccccccccccccccssssss"/>
  <g inkscape:groupmode="layer" id="layer1" inkscape:label="Above" transform="translate(0,-41.496569)">
    <path d="m 639.53125,156.07445 c -0.45358,-1.59965 -24.9855,-24.62196 -19.81575,-20.37297 0,0 -280.14527,2.79029 -314.74489,2.79029 -34.59961,0 -40.73825,17.58268 -40.73825,17.58268 z" style="fill:#806700;fill-opacity:1;stroke:none;stroke-width:1.89999998" id="path21" inkscape:connector-curvature="0" sodipodi:nodetypes="ccscc"/>
  </g>
</svg>